<svg width="64" height="64" viewBox="0 0 64 64" fill="none" xmlns="http://www.w3.org/2000/svg">
  <rect width="64" height="64" rx="14" fill="#1C2B36"/>
  <path d="M14 24a13 13 0 0 0 0 17" stroke="#3E8E86" stroke-width="2.6" stroke-linecap="round"/>
  <path d="M50 24a13 13 0 0 1 0 17" stroke="#3E8E86" stroke-width="2.6" stroke-linecap="round"/>
  <path d="M32 8.5c-8.6 0-14.8 6.4-14.8 14.6 0 9.3 9.6 17.1 14.8 29.6 5.2-12.5 14.8-20.3 14.8-29.6C46.8 14.9 40.6 8.5 32 8.5Z" stroke="#F1ECDF" stroke-width="3.4" stroke-linejoin="round" fill="#16242E"/>
  <g fill="#E1492F">
    <rect x="24.6" y="21.3" width="14.8" height="2.6" rx="1.3"/>
    <rect x="22.2" y="17" width="3.6" height="11.2" rx="1.5"/>
    <rect x="38.2" y="17" width="3.6" height="11.2" rx="1.5"/>
    <rect x="26.6" y="18.9" width="2.8" height="7.4" rx="1.2"/>
    <rect x="34.6" y="18.9" width="2.8" height="7.4" rx="1.2"/>
  </g>
</svg>
